<svg xmlns="http://www.w3.org/2000/svg" viewBox="0 0 899.06 191.26"><defs><style>.cls-1,.cls-2{fill:#477cf4;}.cls-1{opacity:0.61;}</style></defs><title>footer-bg-landscape</title><g id="Layer_2" data-name="Layer 2"><g id="Layer_1-2" data-name="Layer 1"><path d="M5.57,46.5a1.87,1.87,0,1,0,1.87-1.87A1.87,1.87,0,0,0,5.57,46.5Z"/><path d="M5.57,68.08a1.87,1.87,0,1,0,1.87-1.87A1.86,1.86,0,0,0,5.57,68.08Z"/><path d="M5.57,89.66a1.87,1.87,0,1,0,1.87-1.87A1.87,1.87,0,0,0,5.57,89.66Z"/><path d="M5.57,111.24a1.87,1.87,0,1,0,1.87-1.88A1.87,1.87,0,0,0,5.57,111.24Z"/><path d="M5.57,132.81a1.87,1.87,0,1,0,1.87-1.87A1.87,1.87,0,0,0,5.57,132.81Z"/><path d="M5.57,154.39a1.87,1.87,0,1,0,1.87-1.87A1.87,1.87,0,0,0,5.57,154.39Z"/><path d="M5.57,176a1.87,1.87,0,1,0,1.87-1.87A1.87,1.87,0,0,0,5.57,176Z"/><path d="M23.58,46.5a1.87,1.87,0,1,0,1.87-1.87A1.87,1.87,0,0,0,23.58,46.5Z"/><path d="M23.58,68.08a1.87,1.87,0,1,0,1.87-1.87A1.86,1.86,0,0,0,23.58,68.08Z"/><path d="M23.58,89.66a1.87,1.87,0,1,0,1.87-1.87A1.87,1.87,0,0,0,23.58,89.66Z"/><path d="M23.58,111.24a1.87,1.87,0,1,0,1.87-1.88A1.87,1.87,0,0,0,23.58,111.24Z"/><path d="M23.58,132.81a1.87,1.87,0,1,0,1.87-1.87A1.87,1.87,0,0,0,23.58,132.81Z"/><path d="M23.58,154.39a1.87,1.87,0,1,0,1.87-1.87A1.87,1.87,0,0,0,23.58,154.39Z"/><path d="M23.58,176a1.87,1.87,0,1,0,1.87-1.87A1.87,1.87,0,0,0,23.58,176Z"/><path d="M41.58,46.5a1.88,1.88,0,1,0,1.88-1.87A1.88,1.88,0,0,0,41.58,46.5Z"/><path d="M41.58,68.08a1.88,1.88,0,1,0,1.88-1.87A1.87,1.87,0,0,0,41.58,68.08Z"/><path d="M41.58,89.66a1.88,1.88,0,1,0,1.88-1.87A1.88,1.88,0,0,0,41.58,89.66Z"/><path d="M41.58,111.24a1.88,1.88,0,1,0,1.88-1.88A1.88,1.88,0,0,0,41.58,111.24Z"/><path d="M41.58,132.81a1.88,1.88,0,1,0,1.88-1.87A1.88,1.88,0,0,0,41.58,132.81Z"/><path d="M41.58,154.39a1.88,1.88,0,1,0,1.88-1.87A1.88,1.88,0,0,0,41.58,154.39Z"/><path d="M41.58,176a1.88,1.88,0,1,0,1.88-1.87A1.88,1.88,0,0,0,41.58,176Z"/><path d="M59.59,46.5a1.88,1.88,0,1,0,1.88-1.87A1.88,1.88,0,0,0,59.59,46.5Z"/><circle cx="61.47" cy="68.08" r="1.87"/><path d="M59.59,89.66a1.88,1.88,0,1,0,1.88-1.87A1.88,1.88,0,0,0,59.59,89.66Z"/><path d="M59.59,111.24a1.88,1.88,0,1,0,1.88-1.88A1.88,1.88,0,0,0,59.59,111.24Z"/><path d="M59.59,132.81a1.88,1.88,0,1,0,1.88-1.87A1.88,1.88,0,0,0,59.59,132.81Z"/><path d="M59.59,154.39a1.88,1.88,0,1,0,1.88-1.87A1.88,1.88,0,0,0,59.59,154.39Z"/><circle cx="61.47" cy="175.97" r="1.87"/><path class="cls-1" d="M899.06,0C860.1,37.07,789,89.28,667,125.39,496.56,175.8,320.73,167,216.52,161.84A1782.93,1782.93,0,0,1,.43,138Q.21,164.64,0,191.26H898.64Z"/><path class="cls-1" d="M899.06,4.57C863.28,41,790.83,99.29,657.58,136.39c-152.39,42.44-306.35,35.5-422.29,30.27A1916,1916,0,0,1,.4,141.7L0,191.26H898.64Z"/><path class="cls-2" d="M899,11.18C834,81,744.86,115.68,700.48,130.43,546,181.76,378.89,176.05,258.08,171.92A1909,1909,0,0,1,.36,145.78v45.48H899Z"/></g></g></svg>