<svg xmlns="http://www.w3.org/2000/svg" viewBox="0 0 461.33 191.26"><defs><style>.cls-1,.cls-2{fill:#477cf4;}.cls-1{opacity:0.61;}</style></defs><title>footer-bg</title><g id="Layer_2" data-name="Layer 2"><g id="Layer_1-2" data-name="Layer 1"><path d="M5.57,46.5a1.87,1.87,0,1,0,1.87-1.87A1.87,1.87,0,0,0,5.57,46.5Z"/><path d="M5.57,68.08a1.87,1.87,0,1,0,1.87-1.87A1.86,1.86,0,0,0,5.57,68.08Z"/><path d="M5.57,89.66a1.87,1.87,0,1,0,1.87-1.87A1.87,1.87,0,0,0,5.57,89.66Z"/><path d="M5.57,111.24a1.87,1.87,0,1,0,1.87-1.88A1.87,1.87,0,0,0,5.57,111.24Z"/><path d="M5.57,132.81a1.87,1.87,0,1,0,1.87-1.87A1.87,1.87,0,0,0,5.57,132.81Z"/><path d="M5.57,154.39a1.87,1.87,0,1,0,1.87-1.87A1.87,1.87,0,0,0,5.57,154.39Z"/><path d="M5.57,176a1.87,1.87,0,1,0,1.87-1.87A1.87,1.87,0,0,0,5.57,176Z"/><path d="M23.58,46.5a1.87,1.87,0,1,0,1.87-1.87A1.87,1.87,0,0,0,23.58,46.5Z"/><path d="M23.58,68.08a1.87,1.87,0,1,0,1.87-1.87A1.86,1.86,0,0,0,23.58,68.08Z"/><path d="M23.58,89.66a1.87,1.87,0,1,0,1.87-1.87A1.87,1.87,0,0,0,23.58,89.66Z"/><path d="M23.58,111.24a1.87,1.87,0,1,0,1.87-1.88A1.87,1.87,0,0,0,23.58,111.24Z"/><path d="M23.58,132.81a1.87,1.87,0,1,0,1.87-1.87A1.87,1.87,0,0,0,23.58,132.81Z"/><path d="M23.58,154.39a1.87,1.87,0,1,0,1.87-1.87A1.87,1.87,0,0,0,23.58,154.39Z"/><path d="M23.58,176a1.87,1.87,0,1,0,1.87-1.87A1.87,1.87,0,0,0,23.58,176Z"/><path d="M41.58,46.5a1.88,1.88,0,1,0,1.88-1.87A1.88,1.88,0,0,0,41.58,46.5Z"/><path d="M41.58,68.08a1.88,1.88,0,1,0,1.88-1.87A1.87,1.87,0,0,0,41.58,68.08Z"/><path d="M41.58,89.66a1.88,1.88,0,1,0,1.88-1.87A1.88,1.88,0,0,0,41.58,89.66Z"/><path d="M41.58,111.24a1.88,1.88,0,1,0,1.88-1.88A1.88,1.88,0,0,0,41.58,111.24Z"/><path d="M41.58,132.81a1.88,1.88,0,1,0,1.88-1.87A1.88,1.88,0,0,0,41.58,132.81Z"/><path d="M41.58,154.39a1.88,1.88,0,1,0,1.88-1.87A1.88,1.88,0,0,0,41.58,154.39Z"/><path d="M41.58,176a1.88,1.88,0,1,0,1.88-1.87A1.88,1.88,0,0,0,41.58,176Z"/><path d="M59.59,46.5a1.88,1.88,0,1,0,1.88-1.87A1.88,1.88,0,0,0,59.59,46.5Z"/><circle cx="61.47" cy="68.08" r="1.87"/><path d="M59.59,89.66a1.88,1.88,0,1,0,1.88-1.87A1.88,1.88,0,0,0,59.59,89.66Z"/><path d="M59.59,111.24a1.88,1.88,0,1,0,1.88-1.88A1.88,1.88,0,0,0,59.59,111.24Z"/><path d="M59.59,132.81a1.88,1.88,0,1,0,1.88-1.87A1.88,1.88,0,0,0,59.59,132.81Z"/><path d="M59.59,154.39a1.88,1.88,0,1,0,1.88-1.87A1.88,1.88,0,0,0,59.59,154.39Z"/><circle cx="61.47" cy="175.97" r="1.87"/><path class="cls-1" d="M461.33,0c-20,37.07-56.47,89.28-119.09,125.39C254.8,175.8,164.58,167,111.1,161.84A495.63,495.63,0,0,1,.22,138Q.12,164.64,0,191.26H461.12Z"/><path class="cls-1" d="M461.33,4.57C443,41,405.8,99.29,337.42,136.39c-78.19,42.44-157.2,35.5-216.68,30.27A531.05,531.05,0,0,1,.2,141.7L0,191.26H461.12Z"/><path class="cls-2" d="M461.31,11.18C427.94,81,382.21,115.68,359.44,130.43c-79.26,51.33-165,45.62-227,41.49A527.16,527.16,0,0,1,.19,145.78v45.48H461.31Z"/></g></g></svg>