<svg xmlns="http://www.w3.org/2000/svg" viewBox="0 0 133.94 168.95"><defs><style>.cls-1{fill:none;stroke:#000;stroke-miterlimit:10;stroke-width:1.23px;}</style></defs><title>photo-bg</title><g id="Layer_2" data-name="Layer 2"><g id="Layer_1-2" data-name="Layer 1"><rect class="cls-1" x="6.74" y="0.62" width="126.59" height="167.72"/><polygon points="13.05 135.7 0.42 145.38 0.42 148.29 13.05 138.6 13.05 135.7"/><path d="M13.47,134.73v4.19L0,149.26v-4.2Zm-.84,3.55v-1.62l-11.79,9v1.63Z"/><polygon points="13.05 125.24 0.42 134.93 0.42 137.83 13.05 128.15 13.05 125.24"/><path d="M13.47,124.27v4.2L0,138.8v-4.19Zm-.84,3.56V126.2l-11.79,9v1.62Z"/><polygon points="13.05 114.78 0.42 124.47 0.42 127.38 13.05 117.69 13.05 114.78"/><path d="M13.47,113.81V118L0,128.34v-4.19Zm-.84,3.56v-1.62l-11.79,9v1.62Z"/><polygon points="13.05 104.32 0.42 114.01 0.42 116.92 13.05 107.23 13.05 104.32"/><path d="M13.47,103.36v4.19L0,117.88v-4.19Zm-.84,3.55v-1.62l-11.79,9V116Z"/><polygon points="13.05 93.86 0.42 103.55 0.42 106.46 13.05 96.77 13.05 93.86"/><path d="M13.47,92.9v4.19L0,107.42v-4.19Zm-.84,3.55V94.83l-11.79,9v1.62Z"/><polygon points="13.05 83.41 0.42 93.09 0.42 96 13.05 86.31 13.05 83.41"/><path d="M13.47,82.44v4.19L0,97v-4.2ZM12.63,86V84.37l-11.79,9V95Z"/><polygon points="13.05 72.95 0.42 82.64 0.42 85.54 13.05 75.86 13.05 72.95"/><path d="M13.47,72v4.2L0,86.51V82.32Zm-.84,3.56V73.91L.84,83v1.62Z"/><polygon points="13.05 62.49 0.42 72.18 0.42 75.09 13.05 65.4 13.05 62.49"/><path d="M13.47,61.53v4.19L0,76.05V71.86Zm-.84,3.55V63.46L.84,72.5v1.62Z"/><polygon points="13.05 52.03 0.42 61.72 0.42 64.63 13.05 54.94 13.05 52.03"/><path d="M13.47,51.07v4.19L0,65.59V61.4Zm-.84,3.55V53L.84,62v1.62Z"/><polygon points="13.05 41.57 0.42 51.26 0.42 54.17 13.05 44.48 13.05 41.57"/><path d="M13.47,40.61V44.8L0,55.13V50.94Zm-.84,3.55V42.54l-11.79,9V53.2Z"/><polygon points="13.05 31.12 0.42 40.8 0.42 43.71 13.05 34.02 13.05 31.12"/><path d="M13.47,30.15v4.19L0,44.68v-4.2Zm-.84,3.55V32.08L.84,41.13v1.62Z"/><polygon points="13.05 20.66 0.42 30.35 0.42 33.26 13.05 23.57 13.05 20.66"/><path d="M13.47,19.69v4.2L0,34.22V30Zm-.84,3.56V21.62L.84,30.67v1.62Z"/></g></g></svg>